# xmcd
#
# Track frame offsets: 
#        150
#        20512
#        30837
#        50912
#        64107
#        78357
#        90537
#        110742
#        126817
#        144657
#        153490
#        160700
#        175270
#        186830
#        201800
#        218010
#        237282
#        244062
#        262600
#        284180
#
# Disc length: 3923 seconds
#
# Revision: 1
# Processed by: cddbd v1.5PL3 Copyright (c) Steve Scherf et al.
# Submitted via: ExactAudioCopy v0.90b4
#
DISCID=180f5114
DTITLE=Various Artist - O Brother, Where Art Thou
DYEAR=2001
DGENRE=Soundtrack
TTITLE0=James Carter and The Prisoners - Po Lazarus
TTITLE1=Harry McClintock - Big Rock Candy Mountain
TTITLE2=Norman Blake - Your Are My Sunshine
TTITLE3=Alison Krauss - Down to The River to Pray
TTITLE4=The Soggy Bottom Boys - I am a Man of Constant Sorrow
TTITLE5=Chris Thomas King - Hard Time Killing Floor Blues
TTITLE6=Norman Blake - I am a Man of Constant Sorrow
TTITLE7=The Whites - Keep on The Sunny Side
TTITLE8=Alison Krauss And Gillian Welch - I'll Fly Away
TTITLE9=Emmylou Harris, Alison Krauss and Gillian Welch - Didn't Leave N
TTITLE9=obody But The Baby
TTITLE10=Sarah, Hannah, and Leah Peasall - In The Highways
TTITLE11=The Cox Family - I am Weary (Let me Rest)
TTITLE12=John Hartford - I am a Man of Constant Sorrow
TTITLE13=Ralph Stanley - O Death
TTITLE14=The Soggy Bottom Boys - In The Jailhouse Now
TTITLE15=The Soggy Bottom Boys - I am a Man of Constant Sorrow
TTITLE16=John Hartford - Indian War Whoop
TTITLE17=Fairfield Four - Lonesome Valley
TTITLE18=The Stanley Brothers - Angel Band
TTITLE19=DATA
EXTD=
EXTT0=
EXTT1=
EXTT2=
EXTT3=
EXTT4=
EXTT5=
EXTT6=
EXTT7=
EXTT8=
EXTT9=
EXTT10=
EXTT11=
EXTT12=
EXTT13=
EXTT14=
EXTT15=
EXTT16=
EXTT17=
EXTT18=
EXTT19=
PLAYORDER=
